<?xml version="1.0" standalone="no"?>
<!DOCTYPE svg PUBLIC "-//W3C//DTD SVG 20010904//EN"
 "http://www.w3.org/TR/2001/REC-SVG-20010904/DTD/svg10.dtd">
<svg version="1.0" xmlns="http://www.w3.org/2000/svg"
 width="290.000000pt" height="325.000000pt" viewBox="0 0 290.000000 325.000000"
 preserveAspectRatio="xMidYMid meet">

<g transform="translate(0.000000,325.000000) scale(0.100000,-0.100000)"
fill="#000000" stroke="none">
<path d="M0 1625 l0 -1625 1450 0 1450 0 0 1625 0 1625 -1450 0 -1450 0 0
-1625z m2279 1445 c36 -104 72 -161 134 -215 64 -57 163 -101 281 -125 48 -11
89 -20 91 -22 1 -2 5 -124 8 -273 l6 -270 -29 114 c-16 62 -35 120 -41 128
-24 28 -51 10 -93 -62 -49 -83 -163 -199 -261 -265 -156 -105 -398 -204 -574
-235 -119 -21 -365 -20 -459 2 -77 18 -104 13 -110 -21 -4 -19 66 -153 170
-325 73 -120 110 -173 161 -227 l29 -32 -26 -113 c-34 -155 -55 -285 -63 -401
l-6 -98 -211 1 c-116 1 -404 4 -641 8 -397 6 -432 8 -461 25 -59 35 -64 56
-63 243 1 92 4 158 6 146 6 -31 57 -83 81 -83 19 0 19 2 6 41 -36 104 56 257
195 325 80 40 197 45 261 12 57 -29 90 -78 90 -132 0 -52 -37 -131 -81 -175
-45 -44 -160 -98 -228 -107 -53 -7 -53 -7 -46 17 4 13 37 86 73 163 64 134 66
139 47 152 -41 30 -57 15 -121 -115 -132 -267 -160 -431 -73 -431 16 0 19 7
20 48 0 26 8 67 17 91 l17 45 65 -3 c173 -6 352 118 384 266 24 108 -88 218
-247 245 -164 27 -372 -65 -438 -194 -10 -21 -19 -46 -19 -58 0 -11 -4 -20
-10 -20 -7 0 -10 192 -10 558 l1 557 34 -67 c134 -266 321 -384 550 -348 214
34 359 189 432 465 26 96 27 111 27 345 0 208 -4 263 -22 363 -12 66 -22 123
-22 128 0 5 233 8 571 7 l571 -3 27 -75z m-1285 53 c28 -87 60 -436 52 -563
-24 -407 -171 -610 -440 -610 -194 0 -324 153 -455 534 l-41 118 0 167 c0 206
11 285 42 319 47 50 56 51 460 52 350 0 377 -1 382 -17z m1524 -1338 c-20 -34
-42 -58 -56 -62 -33 -8 -116 3 -120 16 -2 6 -8 9 -13 5 -5 -3 -9 -1 -9 4 0 8
221 102 228 96 2 -1 -11 -28 -30 -59z m-428 -133 c0 -16 -59 -91 -79 -101 -30
-17 -71 -13 -121 11 l-45 21 115 37 c131 43 130 43 130 32z"/>
<path d="M1385 3054 c-47 -26 -66 -46 -86 -89 -64 -140 65 -302 204 -256 143
47 172 235 51 327 -45 34 -124 43 -169 18z"/>
<path d="M1272 1114 c24 -56 20 -138 -10 -207 -19 -42 -48 -74 -58 -64 -9 8
-9 68 0 135 l8 64 -27 -4 c-22 -2 -31 -11 -40 -39 -18 -51 -104 -181 -115
-174 -11 7 -5 61 16 144 15 62 12 71 -22 71 -26 0 -41 -25 -51 -87 -3 -20 -23
-48 -54 -79 -52 -51 -58 -49 -33 11 19 45 13 65 -20 65 -17 0 -42 -21 -92 -80
-38 -44 -72 -80 -76 -80 -9 0 5 48 25 87 21 39 90 99 125 108 19 5 30 2 39
-11 12 -17 43 -13 43 6 0 15 -61 50 -88 50 -39 0 -88 -26 -128 -70 -66 -71
-94 -142 -73 -182 26 -50 63 -50 110 -2 33 34 34 35 39 12 11 -44 47 -35 110
27 l58 57 11 -35 c22 -67 83 -62 129 10 l31 47 6 -27 c16 -64 90 -76 140 -23
75 80 69 299 -8 314 -14 3 -14 -3 5 -44z"/>
<path d="M1387 1058 c-30 -24 -49 -87 -42 -143 5 -44 3 -54 -15 -70 -77 -70
-112 -162 -71 -185 50 -26 166 4 191 49 16 30 12 81 -10 129 l-20 43 58 54
c47 44 53 54 36 55 -12 0 -27 -7 -34 -15 -7 -9 -26 -25 -42 -37 l-29 -20 3 38
c3 38 4 39 38 36 28 -3 33 -1 23 9 -7 7 -13 23 -13 35 0 33 -42 45 -73 22z
m-7 -292 c0 -32 -6 -48 -24 -66 -58 -53 -74 17 -20 87 31 41 44 35 44 -21z"/>
</g>
</svg>
